<svg width="36" height="48" viewBox="0 0 36 48" fill="none" xmlns="http://www.w3.org/2000/svg">
<path d="M18 0C16.5625 0 15.2031 0.28125 13.9219 0.84375C12.6406 1.375 11.5156 2.125 10.5469 3.09375C9.60938 4.03125 8.85938 5.14062 8.29688 6.42188C7.76563 7.70312 7.5 9.0625 7.5 10.5V15H1.5C1.09375 15 0.734375 15.1562 0.421875 15.4688C0.140625 15.75 0 16.0938 0 16.5V46.5C0 46.9062 0.140625 47.25 0.421875 47.5312C0.734375 47.8438 1.09375 48 1.5 48H34.5C34.9063 48 35.25 47.8438 35.5313 47.5312C35.8438 47.25 36 46.9062 36 46.5V16.5C36 16.0938 35.8438 15.75 35.5313 15.4688C35.25 15.1562 34.9063 15 34.5 15H28.5V10.5C28.5 9.0625 28.2188 7.70312 27.6563 6.42188C27.125 5.14062 26.375 4.03125 25.4063 3.09375C24.4688 2.125 23.3594 1.375 22.0781 0.84375C20.7969 0.28125 19.4375 0 18 0ZM19.5 34.2656V39H16.5V34.2656C15.2188 33.9531 14.1406 33.2656 13.2656 32.2031C12.4219 31.1406 12 29.9062 12 28.5C12 26.8438 12.5781 25.4375 13.7344 24.2812C14.9219 23.0938 16.3438 22.5 18 22.5C19.6562 22.5 21.0625 23.0938 22.2188 24.2812C23.4062 25.4375 24 26.8438 24 28.5C24 29.9062 23.5625 31.1406 22.6875 32.2031C21.8438 33.2656 20.7813 33.9531 19.5 34.2656ZM25.5 15H10.5V10.5C10.5 8.4375 11.2344 6.67188 12.7031 5.20312C14.1719 3.73438 15.9375 3 18 3C20.0625 3 21.8281 3.73438 23.2969 5.20312C24.7656 6.67188 25.5 8.4375 25.5 10.5V15Z" fill="#F9F9F9"/>
</svg>
