<?xml version="1.0" encoding="utf-8"?>
<!-- Generator: Adobe Illustrator 19.0.0, SVG Export Plug-In . SVG Version: 6.00 Build 0)  -->
<svg version="1.1" id="Ebene_1" xmlns="http://www.w3.org/2000/svg" xmlns:xlink="http://www.w3.org/1999/xlink" x="0px" y="0px"
	 width="20" height="20" viewBox="322 722 20 20" style="enable-background:new 322 722 20 20;" xml:space="preserve">
<style type="text/css">
	.st0{fill:#FCA400;}
	.st1{fill:none;}
</style>
<title>Icon_RT</title>
<g id="icomoon-ignore">
</g>
<path class="st0" d="M340.5,723.9c0-0.2-0.1-0.2-0.2-0.2c-0.5,0-1,0-1.5,0.1c-1.2,0.1-2.3,0.4-3.4,0.8c-1,0.4-1.9,0.8-2.7,1.5
	c-0.8,0.6-1.6,1.4-2.2,2.2c-0.5,0.6-1,1.3-1.5,2c-0.1,0.1-0.1,0.1-0.2,0.1c-0.2-0.1-0.4-0.2-0.6-0.2c-0.4-0.1-0.8-0.3-1.2-0.3
	c-0.6,0-1.1,0.3-1.5,0.6c-0.8,0.6-1.5,1.4-2.1,2.3c-0.2,0.4-0.2,0.4,0.2,0.5c0.1,0,3.5,0.7,3.5,0.7c0,0.1-0.9,1-1.4,1.4
	c-0.1,0.1-0.1,0.1,0,0.3c1,1,2.1,2,3.1,3c0.1,0.1,0.2,0.1,0.2,0c0.4-0.5,1.4-1.5,1.4-1.4c0.1,0,0.6,2.6,0.9,3.8
	c0,0.1,0.1,0.1,0.2,0.1c0.3-0.2,0.7-0.5,1-0.8c0.6-0.5,1.2-1.1,1.6-1.7c0.4-0.6,0.6-1.3,0.3-2c-0.1-0.3-0.2-0.7-0.4-1
	c0-0.1,0-0.1,0.1-0.2c0.8-0.5,1.6-1.1,2.3-1.8c0.7-0.6,1.3-1.2,1.9-2c0.9-1.2,1.4-2.5,1.8-3.9C340.3,726.5,340.5,725.2,340.5,723.9
	L340.5,723.9z M335.5,731c-1.2,0-2.3-1.1-2.3-2.4c0-1.2,1.1-2.3,2.4-2.2c1.2,0,2.2,1.1,2.2,2.3C337.9,730,336.8,731.1,335.5,731
	L335.5,731z"/>
<rect x="322" y="722" class="st1" width="20" height="20"/>
</svg>
