<svg width="122" height="25" viewBox="0 0 122 25" fill="none" xmlns="http://www.w3.org/2000/svg">
<path d="M17.2969 17C17.2969 17.75 17.0729 18.5208 16.625 19.3125C16.1875 20.1042 15.4844 20.8438 14.5156 21.5312C14.2135 21.7396 13.8438 21.9688 13.4062 22.2188C12.9792 22.4583 12.5104 22.7031 12 22.9531C11.5 23.2031 10.9688 23.4479 10.4062 23.6875C9.85417 23.9167 9.29167 24.1198 8.71875 24.2969C8.15625 24.474 7.60417 24.6146 7.0625 24.7188C6.52083 24.8333 6.01042 24.8906 5.53125 24.8906C5.29167 24.8906 5.08333 24.8698 4.90625 24.8281C4.73958 24.7969 4.58333 24.7344 4.4375 24.6406C4.29167 24.5469 4.15104 24.4167 4.01562 24.25C3.88021 24.0833 3.73438 23.875 3.57812 23.625C3.32812 23.8125 3.0625 23.9479 2.78125 24.0312C2.51042 24.125 2.23438 24.1719 1.95312 24.1719H1.51562C1.43229 24.1719 1.35417 24.1406 1.28125 24.0781C1.20833 24.026 1.14062 23.9583 1.07812 23.875C1.02604 23.7917 0.984375 23.7031 0.953125 23.6094C0.921875 23.5052 0.90625 23.4062 0.90625 23.3125C0.90625 22.7812 0.979167 22.276 1.125 21.7969C1.28125 21.3073 1.45833 20.8229 1.65625 20.3438C1.94792 19.4583 2.24479 18.5312 2.54688 17.5625C2.84896 16.5833 3.14062 15.6042 3.42188 14.625C3.70312 13.6458 3.96875 12.6823 4.21875 11.7344C4.47917 10.776 4.71875 9.86979 4.9375 9.01562L5.375 7.20312C5.375 7.17188 5.36979 7.08333 5.35938 6.9375C5.34896 6.79167 5.33333 6.63542 5.3125 6.46875C5.30208 6.29167 5.29167 6.13021 5.28125 5.98438L5.26562 5.78125L5.34375 5.51562L5.32812 5.53125C5.38021 5.34375 5.45312 5.13021 5.54688 4.89062C5.64062 4.65104 5.75521 4.42708 5.89062 4.21875C6.02604 4.01042 6.17188 3.83854 6.32812 3.70312C6.49479 3.55729 6.67188 3.48438 6.85938 3.48438C7.03646 3.48438 7.26042 3.5 7.53125 3.53125C7.8125 3.55208 8.0625 3.5625 8.28125 3.5625C8.38542 3.5625 8.48438 3.55729 8.57812 3.54688C8.68229 3.53646 8.80729 3.51042 8.95312 3.46875C9.10938 3.42708 9.30729 3.36979 9.54688 3.29688C9.79688 3.21354 10.1198 3.10417 10.5156 2.96875C11.1094 2.76042 11.651 2.58854 12.1406 2.45312C12.6406 2.30729 13.1094 2.19271 13.5469 2.10938C13.9948 2.01562 14.4271 1.94792 14.8438 1.90625C15.2604 1.86458 15.6875 1.84375 16.125 1.84375C16.6771 1.84375 17.2083 1.89583 17.7188 2C18.2396 2.10417 18.6979 2.27604 19.0938 2.51562C19.5 2.74479 19.8229 3.05208 20.0625 3.4375C20.3021 3.8125 20.4219 4.27083 20.4219 4.8125C20.4219 5.73958 20.1771 6.57292 19.6875 7.3125C19.1979 8.05208 18.5052 8.73958 17.6094 9.375C16.7135 10.0104 15.6354 10.6042 14.375 11.1562C13.125 11.6979 11.7292 12.2344 10.1875 12.7656C11.4167 12.9531 12.474 13.1771 13.3594 13.4375C14.2552 13.6875 14.9948 13.9844 15.5781 14.3281C16.1615 14.6719 16.5938 15.0625 16.875 15.5C17.1562 15.9375 17.2969 16.4375 17.2969 17ZM11.9844 15.5625C11.8802 15.5417 11.6875 15.5052 11.4062 15.4531C11.1354 15.401 10.8125 15.3438 10.4375 15.2812C10.0729 15.2188 9.67708 15.1562 9.25 15.0938C8.82292 15.0208 8.41667 14.9531 8.03125 14.8906C7.64583 14.8177 7.29167 14.75 6.96875 14.6875C6.65625 14.625 6.42708 14.5729 6.28125 14.5312C5.88542 15.8125 5.53646 17.0417 5.23438 18.2188C4.94271 19.3854 4.64583 20.5625 4.34375 21.75L5.375 21.8594C5.61458 21.8802 5.82292 21.901 6 21.9219C6.1875 21.9323 6.29688 21.9375 6.32812 21.9375C6.74479 21.8958 7.20312 21.8177 7.70312 21.7031C8.20312 21.5781 8.71875 21.4271 9.25 21.25C9.79167 21.0625 10.3385 20.849 10.8906 20.6094C11.4427 20.3594 11.9844 20.0938 12.5156 19.8125C12.7135 19.6875 12.9219 19.5365 13.1406 19.3594C13.3594 19.1823 13.5573 18.9896 13.7344 18.7812C13.9115 18.5625 14.0573 18.3333 14.1719 18.0938C14.2865 17.8542 14.3438 17.6094 14.3438 17.3594C14.3438 16.9427 14.125 16.5833 13.6875 16.2812C13.25 15.9688 12.6823 15.7292 11.9844 15.5625ZM7.04688 11.9375C7.63021 11.75 8.24479 11.5312 8.89062 11.2812C9.53646 11.0208 10.1979 10.7396 10.875 10.4375C11.5625 10.1354 12.2552 9.81771 12.9531 9.48438C13.6615 9.14062 14.3646 8.79688 15.0625 8.45312H15.0469C15.2969 8.31771 15.5417 8.15625 15.7812 7.96875C16.0312 7.77083 16.25 7.5625 16.4375 7.34375C16.6354 7.11458 16.7917 6.88021 16.9062 6.64062C17.0312 6.39062 17.0938 6.14583 17.0938 5.90625C17.0938 5.75 17.0573 5.59375 16.9844 5.4375C16.9115 5.28125 16.7969 5.14062 16.6406 5.01562C16.4844 4.89062 16.276 4.79167 16.0156 4.71875C15.7656 4.64583 15.4531 4.60938 15.0781 4.60938C14.5573 4.60938 13.9688 4.67708 13.3125 4.8125C12.6562 4.9375 12.0208 5.09896 11.4062 5.29688C10.7917 5.49479 10.2448 5.71354 9.76562 5.95312C9.28646 6.19271 8.96875 6.42188 8.8125 6.64062C8.78125 6.69271 8.73438 6.80729 8.67188 6.98438C8.61979 7.16146 8.55729 7.35938 8.48438 7.57812C8.41146 7.78646 8.33333 7.98958 8.25 8.1875C8.17708 8.38542 8.10417 8.53125 8.03125 8.625C8.01042 8.72917 7.96875 8.89062 7.90625 9.10938C7.84375 9.31771 7.76562 9.56771 7.67188 9.85938C7.58854 10.151 7.48958 10.474 7.375 10.8281C7.27083 11.1823 7.16146 11.5521 7.04688 11.9375ZM27.4375 21.4844C27.8333 19.7552 28.276 18.0104 28.7656 16.25C29.2656 14.4896 29.75 12.7448 30.2188 11.0156C30.4167 10.2969 30.5885 9.64583 30.7344 9.0625C30.8906 8.46875 31.0208 7.93229 31.125 7.45312C31.2292 6.97396 31.3073 6.54167 31.3594 6.15625C31.4115 5.76042 31.4375 5.39583 31.4375 5.0625C31.4375 5 31.4375 4.93229 31.4375 4.85938C31.4375 4.77604 31.4323 4.67708 31.4219 4.5625C31.3177 4.5625 31.0833 4.61979 30.7188 4.73438C30.3646 4.84896 29.9427 5 29.4531 5.1875C28.974 5.375 28.4635 5.58854 27.9219 5.82812C27.3906 6.05729 26.8958 6.29167 26.4375 6.53125C26.0729 6.71875 25.7656 6.875 25.5156 7C25.276 7.125 25.0677 7.22396 24.8906 7.29688C24.7135 7.35938 24.5521 7.40625 24.4062 7.4375C24.2604 7.45833 24.1094 7.46875 23.9531 7.46875C23.6302 7.46875 23.349 7.34375 23.1094 7.09375C22.8802 6.84375 22.7656 6.52083 22.7656 6.125C22.7656 5.89583 22.7865 5.69792 22.8281 5.53125C22.8802 5.35417 22.9531 5.19792 23.0469 5.0625C23.151 4.92708 23.2865 4.80208 23.4531 4.6875C23.6198 4.5625 23.8229 4.4375 24.0625 4.3125C26.6979 2.9375 29.3646 1.93229 32.0625 1.29688C34.7604 0.651042 37.4688 0.328125 40.1875 0.328125C40.4062 0.328125 40.6667 0.333333 40.9688 0.34375C41.2708 0.354167 41.5781 0.375 41.8906 0.40625C42.2135 0.427083 42.526 0.463542 42.8281 0.515625C43.1302 0.557292 43.3958 0.609375 43.625 0.671875C43.8646 0.744792 44.0729 0.895833 44.25 1.125C44.4271 1.35417 44.5156 1.59896 44.5156 1.85938C44.5156 2.06771 44.4948 2.27083 44.4531 2.46875C44.4219 2.66667 44.3594 2.83854 44.2656 2.98438C44.1719 3.13021 44.0469 3.25 43.8906 3.34375C43.7448 3.42708 43.5625 3.46875 43.3438 3.46875C42.9688 3.42708 42.5365 3.375 42.0469 3.3125C41.5677 3.25 41.0833 3.21875 40.5938 3.21875C39.6146 3.21875 38.6354 3.24479 37.6562 3.29688C36.6875 3.33854 35.6927 3.47396 34.6719 3.70312C34.6198 3.72396 34.5833 3.78125 34.5625 3.875C34.5521 3.95833 34.5417 4.06771 34.5312 4.20312C34.5 4.76562 34.4531 5.26042 34.3906 5.6875C34.3281 6.11458 34.2396 6.54167 34.125 6.96875C34.0208 7.39583 33.8906 7.85938 33.7344 8.35938C33.5781 8.84896 33.3958 9.44271 33.1875 10.1406C32.9792 10.8281 32.7344 11.6562 32.4531 12.625C32.1823 13.5833 31.8802 14.7448 31.5469 16.1094L30.7969 19.1406C30.6198 19.8385 30.4792 20.4688 30.375 21.0312C30.2812 21.5833 30.1979 22.1302 30.125 22.6719C30.0833 22.849 29.9219 23.0156 29.6406 23.1719C29.3698 23.3281 29.0469 23.4062 28.6719 23.4062C28.4531 23.4062 28.2552 23.349 28.0781 23.2344C27.901 23.1094 27.7552 22.9531 27.6406 22.7656C27.526 22.5781 27.4479 22.375 27.4062 22.1562C27.3646 21.9271 27.375 21.7031 27.4375 21.4844ZM41.5938 17.3438C41.5938 16.7396 41.6667 16.0573 41.8125 15.2969C41.9583 14.526 42.2135 13.7812 42.5781 13.0625C43.0781 12.0625 43.6354 11.099 44.25 10.1719C44.8646 9.23438 45.4948 8.375 46.1406 7.59375C46.7865 6.80208 47.4323 6.10417 48.0781 5.5C48.724 4.88542 49.3385 4.40625 49.9219 4.0625L49.9062 4.07812C50.2708 3.84896 50.6562 3.60938 51.0625 3.35938C51.4688 3.10938 51.8854 2.88021 52.3125 2.67188C52.7396 2.46354 53.1719 2.29167 53.6094 2.15625C54.0469 2.02083 54.4792 1.95312 54.9062 1.95312C55.3438 1.95312 55.7604 2.04167 56.1562 2.21875C56.5521 2.39583 56.8958 2.64062 57.1875 2.95312C57.4896 3.25521 57.724 3.60938 57.8906 4.01562C58.0677 4.42188 58.1562 4.85417 58.1562 5.3125C58.1562 5.63542 58.1354 5.89062 58.0938 6.07812C58.0625 6.25521 58.0052 6.39062 57.9219 6.48438C57.849 6.57812 57.75 6.63542 57.625 6.65625C57.5104 6.67708 57.375 6.6875 57.2188 6.6875C56.9896 6.6875 56.8073 6.64062 56.6719 6.54688C56.5469 6.44271 56.4427 6.32292 56.3594 6.1875C56.2865 6.04167 56.2292 5.88542 56.1875 5.71875C56.1458 5.54167 56.0938 5.38542 56.0312 5.25C55.9792 5.10417 55.9062 4.98438 55.8125 4.89062C55.7292 4.78646 55.6094 4.73438 55.4531 4.73438C55.0365 4.73438 54.5833 4.82812 54.0938 5.01562C53.6146 5.20312 53.1198 5.45312 52.6094 5.76562C52.1094 6.07812 51.6042 6.4375 51.0938 6.84375C50.5938 7.23958 50.1146 7.64583 49.6562 8.0625C49.1979 8.47917 48.7708 8.89062 48.375 9.29688C47.9896 9.70312 47.6562 10.0677 47.375 10.3906C46.9583 10.9219 46.5781 11.4635 46.2344 12.0156C45.8906 12.5573 45.5938 13.1146 45.3438 13.6875C45.0938 14.25 44.901 14.8333 44.7656 15.4375C44.6302 16.0312 44.5625 16.651 44.5625 17.2969C44.5625 17.7969 44.6302 18.2344 44.7656 18.6094C44.9115 18.9844 45.0677 19.3073 45.2344 19.5781C45.4323 19.8906 45.6771 20.1094 45.9688 20.2344C46.2604 20.349 46.6094 20.4062 47.0156 20.4062C47.901 20.4062 48.7188 20.3229 49.4688 20.1562C50.2188 19.9896 50.9375 19.7656 51.625 19.4844C52.3125 19.2031 52.9844 18.8698 53.6406 18.4844C54.2969 18.099 54.974 17.6875 55.6719 17.25H56.0781C56.2135 17.25 56.349 17.2865 56.4844 17.3594C56.6302 17.4323 56.7552 17.526 56.8594 17.6406C56.974 17.7552 57.0625 17.8854 57.125 18.0312C57.1979 18.1771 57.2344 18.3281 57.2344 18.4844C57.2344 18.8281 57.099 19.1719 56.8281 19.5156C56.5573 19.849 56.2083 20.1719 55.7812 20.4844C55.3646 20.7865 54.8906 21.0729 54.3594 21.3438C53.8281 21.6146 53.3021 21.8542 52.7812 22.0625C52.2708 22.2708 51.7917 22.4479 51.3438 22.5938C50.8958 22.7396 50.5365 22.8385 50.2656 22.8906C50.0365 22.9427 49.8125 22.9948 49.5938 23.0469C49.3854 23.0885 49.1354 23.1354 48.8438 23.1875C48.5521 23.2292 48.2031 23.2656 47.7969 23.2969C47.3906 23.3177 46.8802 23.3281 46.2656 23.3281C45.8906 23.3281 45.5469 23.2708 45.2344 23.1562C44.9219 23.0312 44.6406 22.8906 44.3906 22.7344C44.151 22.5677 43.9427 22.3958 43.7656 22.2188C43.599 22.0417 43.4635 21.8906 43.3594 21.7656C42.7448 21.0469 42.2969 20.3385 42.0156 19.6406C41.7344 18.9427 41.5938 18.1771 41.5938 17.3438ZM60.0781 17.8906C60.276 17.0885 60.5677 16.25 60.9531 15.375C61.349 14.5 61.8229 13.6562 62.375 12.8438C62.9271 12.0208 63.5521 11.2656 64.25 10.5781C64.9583 9.88021 65.7292 9.3125 66.5625 8.875C66.8333 8.72917 67.1302 8.61979 67.4531 8.54688C67.776 8.47396 68.1042 8.4375 68.4375 8.4375C68.7812 8.4375 69.099 8.46875 69.3906 8.53125C69.6927 8.59375 69.9479 8.69792 70.1562 8.84375C70.375 8.98958 70.5469 9.17708 70.6719 9.40625C70.7969 9.63542 70.8594 9.91667 70.8594 10.25C70.8594 10.5 70.8229 10.7552 70.75 11.0156C70.6771 11.2656 70.5677 11.4948 70.4219 11.7031C70.276 11.901 70.0938 12.0625 69.875 12.1875C69.6562 12.3125 69.401 12.375 69.1094 12.375C68.8802 12.375 68.6667 12.3333 68.4688 12.25C68.2812 12.1667 68.099 12.0729 67.9219 11.9688C67.8281 11.9062 67.7396 11.8542 67.6562 11.8125C67.5729 11.7604 67.474 11.7135 67.3594 11.6719C66.9427 11.8594 66.5469 12.1094 66.1719 12.4219C65.8073 12.724 65.4635 13.0625 65.1406 13.4375C64.8281 13.8125 64.5365 14.2135 64.2656 14.6406C64.0052 15.0677 63.7656 15.4948 63.5469 15.9219C63.3385 16.349 63.1562 16.7708 63 17.1875C62.8542 17.5938 62.7344 17.9688 62.6406 18.3125C62.5677 18.5625 62.5 18.849 62.4375 19.1719C62.3854 19.4844 62.3594 19.7917 62.3594 20.0938C62.3594 20.3021 62.375 20.5 62.4062 20.6875C62.4479 20.875 62.5156 21.0417 62.6094 21.1875C62.7031 21.3333 62.8281 21.4479 62.9844 21.5312C63.1406 21.6146 63.3333 21.6562 63.5625 21.6562C63.9271 21.6562 64.2865 21.6094 64.6406 21.5156C65.0052 21.4219 65.3594 21.3021 65.7031 21.1562C66.0469 21.0104 66.3802 20.8438 66.7031 20.6562C67.0365 20.4583 67.3594 20.2604 67.6719 20.0625C67.8698 19.9375 68.0677 19.8073 68.2656 19.6719C68.4635 19.5365 68.651 19.4167 68.8281 19.3125C69.0052 19.2083 69.1667 19.125 69.3125 19.0625C69.4688 18.9896 69.6042 18.9531 69.7188 18.9531C69.875 18.9531 70.0208 18.9948 70.1562 19.0781C70.2917 19.151 70.3594 19.2812 70.3594 19.4688C70.3594 19.6042 70.3281 19.7552 70.2656 19.9219C70.1198 20.3281 69.9219 20.6927 69.6719 21.0156C69.4219 21.3385 69.1406 21.6302 68.8281 21.8906C68.526 22.1406 68.1979 22.3646 67.8438 22.5625C67.5 22.7604 67.1562 22.9427 66.8125 23.1094C66.1667 23.4531 65.5104 23.7135 64.8438 23.8906C64.1875 24.0573 63.6354 24.1406 63.1875 24.1406C63.0417 24.1406 62.8698 24.125 62.6719 24.0938C62.474 24.0625 62.3021 24.0156 62.1562 23.9531C61.3125 23.5885 60.6979 23.099 60.3125 22.4844C59.9271 21.8698 59.7344 21.1406 59.7344 20.2969C59.7344 19.9323 59.7604 19.5521 59.8125 19.1562C59.875 18.75 59.9635 18.3281 60.0781 17.8906ZM84.4062 24.8906C83.7604 24.8906 83.3177 24.75 83.0781 24.4688C82.8385 24.1875 82.7188 23.8021 82.7188 23.3125C82.7188 23.0521 82.7448 22.7708 82.7969 22.4688C82.849 22.1667 82.9167 21.8542 83 21.5312C83.1458 20.9792 83.3073 20.4323 83.4844 19.8906C83.6719 19.3385 83.8542 18.7865 84.0312 18.2344C84.2188 17.6719 84.3958 17.1146 84.5625 16.5625C84.7396 16 84.8958 15.4375 85.0312 14.875C85.0417 14.8229 85.0469 14.7552 85.0469 14.6719C85.0469 14.526 85.0104 14.4115 84.9375 14.3281C84.8646 14.2448 84.7552 14.2031 84.6094 14.2031C84.3802 14.2031 84.1302 14.25 83.8594 14.3438C83.599 14.4375 83.3802 14.5417 83.2031 14.6562C82.5052 15.125 81.8906 15.5885 81.3594 16.0469C80.8385 16.5052 80.3594 16.9844 79.9219 17.4844C79.4844 17.9844 79.0677 18.5208 78.6719 19.0938C78.2865 19.6562 77.8802 20.276 77.4531 20.9531C77.0885 21.6302 76.8177 22.2083 76.6406 22.6875C76.4635 23.1562 76.2969 23.5365 76.1406 23.8281C75.9948 24.1198 75.8281 24.3281 75.6406 24.4531C75.4531 24.5885 75.1719 24.6562 74.7969 24.6562C74.3802 24.6562 74.0833 24.5365 73.9062 24.2969C73.7396 24.0573 73.6562 23.7448 73.6562 23.3594C73.6562 23.0573 73.7031 22.7188 73.7969 22.3438L78.9531 1.6875C78.9844 1.5625 79.0365 1.42708 79.1094 1.28125C79.1823 1.13542 79.2812 1 79.4062 0.875C79.5312 0.75 79.6771 0.645833 79.8438 0.5625C80.0208 0.479167 80.2188 0.4375 80.4375 0.4375C80.6042 0.4375 80.7812 0.447917 80.9688 0.46875C81.1562 0.479167 81.3229 0.510417 81.4688 0.5625C81.625 0.604167 81.75 0.677083 81.8438 0.78125C81.9479 0.885417 82 1.02083 82 1.1875C82 1.22917 81.9896 1.31771 81.9688 1.45312C81.9479 1.57812 81.9167 1.72396 81.875 1.89062C81.3125 4.15104 80.7083 6.50521 80.0625 8.95312C79.4271 11.401 78.7812 13.875 78.125 16.375C78.7604 15.5938 79.4219 14.8802 80.1094 14.2344C80.7969 13.5781 81.5 13.0156 82.2188 12.5469C82.9479 12.0781 83.6979 11.7135 84.4688 11.4531C85.25 11.1823 86.0573 11.0469 86.8906 11.0469C87.4219 11.0469 87.8333 11.2188 88.125 11.5625C88.4167 11.8958 88.5625 12.3229 88.5625 12.8438C88.5625 13.0833 88.5312 13.3177 88.4688 13.5469C88.3438 14.026 88.2031 14.5 88.0469 14.9688C87.8906 15.4271 87.7292 15.8906 87.5625 16.3594C87.3958 16.8281 87.2292 17.3073 87.0625 17.7969C86.8958 18.276 86.75 18.7708 86.625 19.2812C86.4583 19.9375 86.3438 20.5625 86.2812 21.1562C86.2188 21.7396 86.1771 22.2083 86.1562 22.5625C86.1354 22.8646 86.0885 23.1562 86.0156 23.4375C85.9427 23.7188 85.8333 23.9635 85.6875 24.1719C85.5521 24.3906 85.375 24.5625 85.1562 24.6875C84.9479 24.8229 84.6979 24.8906 84.4062 24.8906ZM91 17.9688C91 17.5208 91.1198 17.1406 91.3594 16.8281C91.599 16.5156 91.9167 16.3073 92.3125 16.2031C92.4271 15.974 92.6042 15.6667 92.8438 15.2812C93.0833 14.8854 93.3802 14.4583 93.7344 14C94.0885 13.5417 94.4896 13.0833 94.9375 12.625C95.3958 12.1562 95.8958 11.7344 96.4375 11.3594C96.9896 10.974 97.5781 10.6615 98.2031 10.4219C98.8385 10.1823 99.5104 10.0625 100.219 10.0625C100.823 10.0625 101.349 10.1354 101.797 10.2812C102.245 10.4271 102.615 10.6302 102.906 10.8906C103.198 11.151 103.417 11.4635 103.562 11.8281C103.708 12.1823 103.781 12.5677 103.781 12.9844C103.781 13.3385 103.734 13.6771 103.641 14C103.495 14.5833 103.224 15.0938 102.828 15.5312C102.432 15.9688 101.964 16.3542 101.422 16.6875C100.891 17.0104 100.307 17.2812 99.6719 17.5C99.0469 17.7188 98.4167 17.901 97.7812 18.0469C97.1562 18.1927 96.5521 18.3073 95.9688 18.3906C95.3854 18.4635 94.8802 18.5208 94.4531 18.5625C94.3594 18.75 94.276 18.9896 94.2031 19.2812C94.1406 19.5625 94.1094 19.8385 94.1094 20.1094C94.1094 20.7135 94.349 21.1823 94.8281 21.5156C95.3073 21.849 95.9688 22.0156 96.8125 22.0156C97.3021 22.0156 97.7708 21.9635 98.2188 21.8594C98.6667 21.7448 99.0885 21.6042 99.4844 21.4375C99.8906 21.2604 100.271 21.0729 100.625 20.875C100.979 20.6667 101.302 20.4635 101.594 20.2656C101.969 20.0156 102.323 19.8073 102.656 19.6406C103 19.4635 103.302 19.375 103.562 19.375C103.823 19.375 103.99 19.4427 104.062 19.5781C104.135 19.7031 104.172 19.8385 104.172 19.9844C104.172 20.0677 104.167 20.151 104.156 20.2344C104.156 20.3073 104.151 20.3698 104.141 20.4219C104.089 20.6927 103.984 20.9635 103.828 21.2344C103.672 21.5052 103.474 21.7396 103.234 21.9375C102.151 22.7917 101.036 23.401 99.8906 23.7656C98.7552 24.1302 97.5417 24.3125 96.25 24.3125C96 24.3125 95.7031 24.2969 95.3594 24.2656C95.026 24.2344 94.6771 24.1719 94.3125 24.0781C93.9479 23.9844 93.5885 23.849 93.2344 23.6719C92.8802 23.4948 92.5625 23.2604 92.2812 22.9688C92.0104 22.6771 91.7865 22.3177 91.6094 21.8906C91.4427 21.4635 91.3594 20.9479 91.3594 20.3438C91.3594 19.8542 91.4271 19.3073 91.5625 18.7031C91.4271 18.6823 91.2969 18.6146 91.1719 18.5C91.0573 18.375 91 18.1979 91 17.9688ZM100.781 13.6406C100.802 13.5885 100.812 13.5417 100.812 13.5C100.812 13.4583 100.812 13.4115 100.812 13.3594C100.812 13.0781 100.708 12.8698 100.5 12.7344C100.292 12.5885 100.042 12.5156 99.75 12.5156C99.2917 12.5156 98.8385 12.6354 98.3906 12.875C97.9531 13.1146 97.5365 13.4167 97.1406 13.7812C96.7552 14.1354 96.4115 14.5208 96.1094 14.9375C95.8073 15.3438 95.5729 15.7135 95.4062 16.0469C96.1562 15.9844 96.8438 15.8854 97.4688 15.75C98.0938 15.6042 98.6354 15.4271 99.0938 15.2188C99.5625 15 99.9375 14.7604 100.219 14.5C100.51 14.2292 100.698 13.9427 100.781 13.6406ZM113.594 16.4375C113.385 16.4375 113.151 16.4896 112.891 16.5938C112.63 16.6875 112.37 16.8021 112.109 16.9375C111.849 17.0729 111.599 17.2135 111.359 17.3594C111.12 17.5052 110.911 17.6198 110.734 17.7031L109.312 23.3281C109.26 23.5469 109.13 23.7135 108.922 23.8281C108.714 23.9427 108.521 24 108.344 24C107.781 24 107.396 23.8906 107.188 23.6719C106.99 23.4427 106.891 23.1458 106.891 22.7812C106.891 22.625 106.901 22.4688 106.922 22.3125C106.953 22.1458 106.99 21.974 107.031 21.7969L107.094 21.5312C107.156 21.25 107.24 20.8958 107.344 20.4688C107.458 20.0417 107.578 19.5938 107.703 19.125C107.828 18.6458 107.953 18.1667 108.078 17.6875C108.214 17.1979 108.339 16.75 108.453 16.3438C108.568 15.9479 108.734 15.3594 108.953 14.5781C109.182 13.7969 109.432 12.9219 109.703 11.9531C109.984 10.9844 110.271 9.97396 110.562 8.92188C110.865 7.85938 111.146 6.84896 111.406 5.89062C111.677 4.93229 111.917 4.08333 112.125 3.34375C112.333 2.59375 112.479 2.04167 112.562 1.6875C112.656 1.54167 112.802 1.42188 113 1.32812C113.198 1.23438 113.432 1.1875 113.703 1.1875C113.891 1.1875 114.083 1.21354 114.281 1.26562C114.479 1.30729 114.656 1.38021 114.812 1.48438C114.979 1.57812 115.115 1.70312 115.219 1.85938C115.323 2.00521 115.375 2.17708 115.375 2.375C115.375 2.51042 115.344 2.67188 115.281 2.85938C114.656 4.67188 114.036 6.55208 113.422 8.5C112.807 10.4375 112.25 12.401 111.75 14.3906C111.885 14.3073 112.135 14.1354 112.5 13.875C112.865 13.6146 113.266 13.3125 113.703 12.9688C114.151 12.625 114.599 12.2656 115.047 11.8906C115.495 11.5156 115.87 11.1771 116.172 10.875C116.38 10.6667 116.589 10.4531 116.797 10.2344C117.016 10.0052 117.219 9.79167 117.406 9.59375C117.604 9.38542 117.776 9.20312 117.922 9.04688C118.068 8.88021 118.182 8.75 118.266 8.65625C118.464 8.42708 118.677 8.23958 118.906 8.09375C119.146 7.9375 119.385 7.85938 119.625 7.85938C119.854 7.85938 120.062 7.89583 120.25 7.96875C120.438 8.04167 120.599 8.13542 120.734 8.25C120.87 8.35417 120.974 8.47917 121.047 8.625C121.12 8.76042 121.156 8.89062 121.156 9.01562C121.156 9.17188 121.12 9.33854 121.047 9.51562C120.974 9.69271 120.885 9.86458 120.781 10.0312C120.688 10.1979 120.583 10.3542 120.469 10.5C120.354 10.6354 120.255 10.7396 120.172 10.8125C119.891 11.0625 119.573 11.3385 119.219 11.6406C118.865 11.9323 118.495 12.2344 118.109 12.5469C117.724 12.849 117.328 13.1562 116.922 13.4688C116.526 13.7708 116.141 14.0625 115.766 14.3438C116.422 14.7083 116.958 15.1979 117.375 15.8125C117.802 16.4167 118.141 17.0938 118.391 17.8438C118.641 18.5833 118.812 19.3646 118.906 20.1875C119 21.0104 119.047 21.8125 119.047 22.5938C119.047 22.6562 119.042 22.7552 119.031 22.8906C119.021 23.0156 119 23.1354 118.969 23.25C118.917 23.4375 118.854 23.6094 118.781 23.7656C118.708 23.9219 118.609 24.0521 118.484 24.1562C118.37 24.2708 118.224 24.3594 118.047 24.4219C117.88 24.4844 117.672 24.5156 117.422 24.5156C117.182 24.5156 116.979 24.474 116.812 24.3906C116.646 24.3073 116.505 24.1979 116.391 24.0625C116.286 23.9271 116.208 23.776 116.156 23.6094C116.104 23.4427 116.078 23.276 116.078 23.1094C116.078 22.5885 116.062 22.0521 116.031 21.5C116 20.9375 115.938 20.3958 115.844 19.875C115.75 19.3542 115.62 18.8646 115.453 18.4062C115.297 17.9375 115.089 17.5365 114.828 17.2031C114.641 16.9635 114.464 16.776 114.297 16.6406C114.141 16.5052 113.948 16.4375 113.719 16.4375H113.594Z" fill="white" fill-opacity="0.6"/>
</svg>
