<svg width="146" height="24" viewBox="0 0 146 24" fill="none" xmlns="http://www.w3.org/2000/svg">
<path d="M18.2344 18.0156L18.0625 21.6719C15.5312 22.776 13.2448 23.3281 11.2031 23.3281C7.97396 23.3281 5.34375 22.3125 3.3125 20.2812C1.28125 18.2396 0.265625 15.6094 0.265625 12.3906C0.265625 8.93229 1.36458 6.11458 3.5625 3.9375C5.77083 1.76042 8.59896 0.671875 12.0469 0.671875C13.8073 0.671875 15.6875 0.96875 17.6875 1.5625V5.32812C15.5417 3.99479 13.526 3.32812 11.6406 3.32812C9.20312 3.32812 7.27604 4.1875 5.85938 5.90625C4.53646 7.5 3.875 9.54688 3.875 12.0469C3.875 14.4948 4.49479 16.5052 5.73438 18.0781C7.08854 19.8073 8.95312 20.6719 11.3281 20.6719C13.4844 20.6719 15.7865 19.7865 18.2344 18.0156ZM33.9531 14.9688C33.9531 17.2188 33.2969 19.1458 31.9844 20.75C30.5885 22.4688 28.7865 23.3281 26.5781 23.3281C24.5052 23.3281 22.8125 22.5573 21.5 21.0156C20.25 19.5573 19.625 17.776 19.625 15.6719C19.625 13.3385 20.2917 11.3906 21.625 9.82812C23.0417 8.18229 24.901 7.35938 27.2031 7.35938C29.276 7.35938 30.9427 8.125 32.2031 9.65625C33.3698 11.0833 33.9531 12.8542 33.9531 14.9688ZM30.8125 15.7188C30.8125 14.2083 30.4167 12.8438 29.625 11.625C28.7188 10.2292 27.5469 9.53125 26.1094 9.53125C25.9635 9.53125 25.7396 9.54688 25.4375 9.57812C23.6458 10.4844 22.75 12.1719 22.75 14.6406C22.75 16.2135 23.1458 17.6562 23.9375 18.9688C24.8646 20.5 26.0521 21.2292 27.5 21.1562L28.1875 21.125C29.9375 19.9583 30.8125 18.1562 30.8125 15.7188ZM49.0156 23H44.75C45.1562 22.0312 45.3594 20.6198 45.3594 18.7656V13.5156C45.3594 12.4427 45.2292 11.6771 44.9688 11.2188C44.6146 10.5729 43.9323 10.25 42.9219 10.25C42.1615 10.25 41.1302 10.5885 39.8281 11.2656V18.2656C39.8281 20.1198 40.0312 21.6979 40.4375 23H36.1719C36.4635 22.0521 36.6406 21.3333 36.7031 20.8438C36.7552 20.4688 36.7812 19.7135 36.7812 18.5781V12.8125C36.7812 10.9479 36.5781 9.23958 36.1719 7.6875H39.8281V10.4531L42.1875 7.75C42.9271 7.48958 43.6094 7.35938 44.2344 7.35938C45.8698 7.35938 47.026 8.00521 47.7031 9.29688C48.2344 10.3281 48.5 11.8646 48.5 13.9062V18.8281C48.5 20.6094 48.6719 22 49.0156 23ZM59.6562 18.9062C59.6562 20.3229 59.1094 21.4323 58.0156 22.2344C57.0365 22.9635 55.8177 23.3281 54.3594 23.3281C53.651 23.3281 52.4792 23.151 50.8438 22.7969V19C52.2812 20.4375 53.4896 21.1562 54.4688 21.1562C55.0104 21.1562 55.4844 20.9792 55.8906 20.625C56.3073 20.2708 56.5156 19.8229 56.5156 19.2812C56.5156 18.6458 56.0573 17.9375 55.1406 17.1562C53.4635 15.75 52.6094 15.026 52.5781 14.9844C51.651 14.0052 51.1875 12.9531 51.1875 11.8281C51.1875 10.5052 51.7396 9.41146 52.8438 8.54688C53.8542 7.75521 55.0417 7.35938 56.4062 7.35938C57.3021 7.35938 58.2604 7.55729 59.2812 7.95312V10.9219C58.2083 9.99479 57.2656 9.53125 56.4531 9.53125C55.901 9.53125 55.4219 9.67708 55.0156 9.96875C54.5573 10.3021 54.3281 10.7344 54.3281 11.2656C54.3281 11.9531 54.7865 12.6927 55.7031 13.4844L58.2656 15.6719C59.1927 16.651 59.6562 17.7292 59.6562 18.9062ZM74.3594 23H70.7031V20.4062L68.4062 22.9219C67.6667 23.1927 66.9896 23.3281 66.375 23.3281C64.6771 23.3281 63.5104 22.8333 62.875 21.8438C62.3854 21.0833 62.1354 19.8021 62.125 18C62.1146 17.4688 62.1198 16.7083 62.1406 15.7188C62.1719 14.6667 62.1875 13.901 62.1875 13.4219C62.1875 11.099 61.9635 9.1875 61.5156 7.6875H65.7812C65.375 8.77083 65.1719 10.0469 65.1719 11.5156V17.3125C65.1719 18.4479 65.3281 19.2292 65.6406 19.6562C66.0156 20.1771 66.7448 20.4375 67.8281 20.4375C68.6198 20.4375 69.5781 20.1667 70.7031 19.625V11.9062C70.7031 10.375 70.5 8.96875 70.0938 7.6875H74.3594C73.9531 9 73.75 10.0156 73.75 10.7344V18.1719C73.75 20.1198 73.9531 21.7292 74.3594 23ZM81.5 23H77.2344C77.6406 21.4479 77.8438 19.8906 77.8438 18.3281V6.96875C77.8438 5.375 77.6406 3.71354 77.2344 1.98438L81.5 1.10938C81.0938 3.24479 80.8906 5.14062 80.8906 6.79688V18.6875C80.8906 20.1771 81.0938 21.6146 81.5 23ZM92.8594 19.8906L91.7031 22.8594C90.6198 23.1719 89.6354 23.3281 88.75 23.3281C86.9896 23.3281 85.8854 22.651 85.4375 21.2969C85.25 20.7135 85.1562 19.2917 85.1562 17.0312V9.85938H82.9844L88.2031 4.46875V7.6875H91.8281V9.85938H88.2031V16.9531C88.2031 18.1302 88.2812 18.9375 88.4375 19.375C88.7292 20.1771 89.349 20.5781 90.2969 20.5781C91.1719 20.5781 92.026 20.349 92.8594 19.8906ZM108.312 23H103.422C103.922 21.0625 104.172 19.1771 104.172 17.3438V7.5C104.172 5.03125 103.922 2.86458 103.422 1H108.312C107.802 2.86458 107.547 5.03125 107.547 7.5V17.1875C107.547 19.125 107.802 21.0625 108.312 23ZM122.859 19.8438L121.656 22.7812C120.635 23.1458 119.641 23.3281 118.672 23.3281C116.391 23.3281 114.589 22.6198 113.266 21.2031C111.974 19.8281 111.328 17.9948 111.328 15.7031C111.328 13.2031 112.073 11.1927 113.562 9.67188C115.062 8.14062 117.062 7.375 119.562 7.375C120.792 7.375 121.776 7.48438 122.516 7.70312L122.359 11.25C121.651 10.6146 121.135 10.2031 120.812 10.0156C120.26 9.69271 119.625 9.53125 118.906 9.53125C117.5 9.53125 116.385 10.0938 115.562 11.2188C114.833 12.2292 114.469 13.4635 114.469 14.9219C114.469 16.6094 114.844 17.9896 115.594 19.0625C116.458 20.2812 117.698 20.8906 119.312 20.8906C120.406 20.8906 121.589 20.5417 122.859 19.8438ZM138.891 14.9688C138.891 17.2188 138.234 19.1458 136.922 20.75C135.526 22.4688 133.724 23.3281 131.516 23.3281C129.443 23.3281 127.75 22.5573 126.438 21.0156C125.188 19.5573 124.562 17.776 124.562 15.6719C124.562 13.3385 125.229 11.3906 126.562 9.82812C127.979 8.18229 129.839 7.35938 132.141 7.35938C134.214 7.35938 135.88 8.125 137.141 9.65625C138.307 11.0833 138.891 12.8542 138.891 14.9688ZM135.75 15.7188C135.75 14.2083 135.354 12.8438 134.562 11.625C133.656 10.2292 132.484 9.53125 131.047 9.53125C130.901 9.53125 130.677 9.54688 130.375 9.57812C128.583 10.4844 127.688 12.1719 127.688 14.6406C127.688 16.2135 128.083 17.6562 128.875 18.9688C129.802 20.5 130.99 21.2292 132.438 21.1562L133.125 21.125C134.875 19.9583 135.75 18.1562 135.75 15.7188ZM145.578 20.8906L145.516 21.4062L143.562 23.5156H143.172L140.812 21.5625V21.1719L142.891 18.9688H143.266L145.578 20.8906Z" fill="white" fill-opacity="0.6"/>
</svg>
