<svg width="85" height="74" viewBox="0 0 85 74" fill="none" xmlns="http://www.w3.org/2000/svg">
<g filter="url(#filter0_d)">
<rect x="4.56836" y="-4.41699" width="20.9558" height="117.2" transform="rotate(-53.1531 4.56836 -4.41699)" fill="#EFBC43"/>
</g>
<path d="M47.0488 14.8908L48.5859 16.1197L45.7984 19.6064C45.0621 19.605 44.3174 19.4603 43.5644 19.1723C42.8113 18.8844 42.1182 18.4873 41.485 17.9811C40.5935 17.2684 39.9427 16.434 39.5326 15.4779C39.1292 14.5135 38.9964 13.5266 39.1344 12.517C39.2723 11.5075 39.6843 10.5736 40.3704 9.71548C41.0564 8.85735 41.8767 8.24988 42.8311 7.89308C43.7855 7.53627 44.7741 7.45266 45.797 7.64224C46.8349 7.83014 47.8038 8.28377 48.7036 9.00313C49.4367 9.58928 50.0067 10.2429 50.4134 10.9641C50.8201 11.6853 51.041 12.4424 51.0763 13.2353L49.2522 13.4158C49.1186 12.2164 48.581 11.2404 47.6396 10.4878C47.023 9.99486 46.3699 9.68439 45.6802 9.55634C44.9988 9.43495 44.3342 9.49764 43.6863 9.7444C43.0466 9.99781 42.4871 10.4245 42.0075 11.0243C41.5412 11.6075 41.2549 12.239 41.1485 12.9187C41.0505 13.605 41.1323 14.2713 41.394 14.9176C41.6641 15.5705 42.1033 16.1401 42.7115 16.6264C43.3946 17.1725 44.1144 17.5021 44.8707 17.6152L47.0488 14.8908ZM49.9313 24.6722C49.2565 24.1327 48.7648 23.5006 48.4564 22.7761C48.148 22.0516 48.0461 21.3078 48.1508 20.5448C48.2705 19.7801 48.5935 19.0687 49.1197 18.4105C49.6459 17.7523 50.2654 17.2849 50.9783 17.0081C51.6995 16.738 52.4475 16.6736 53.2222 16.815C53.9968 16.9563 54.7216 17.2967 55.3964 17.8363C56.0796 18.3824 56.5754 19.0178 56.8838 19.7424C57.1922 20.4669 57.2899 21.2073 57.1769 21.9637C57.0722 22.7267 56.7567 23.4373 56.2305 24.0954C55.7043 24.7536 55.0773 25.2219 54.3494 25.5004C53.6365 25.7771 52.8927 25.8448 52.1181 25.7035C51.3434 25.5621 50.6145 25.2184 49.9313 24.6722ZM51.0003 23.335C51.5752 23.7946 52.2033 23.9826 52.8846 23.8991C53.5659 23.8156 54.1563 23.4614 54.6559 22.8366C55.1555 22.2117 55.371 21.5578 55.3025 20.8748C55.2339 20.1918 54.9122 19.6205 54.3374 19.161C53.7625 18.7014 53.1344 18.5133 52.4531 18.5968C51.7801 18.687 51.1939 19.0445 50.6943 19.6694C50.1948 20.2942 49.9751 20.9448 50.0353 21.6212C50.1038 22.3041 50.4255 22.8754 51.0003 23.335ZM62.4701 19.3535L64.0322 20.6024L56.6189 29.8753L55.0567 28.6264L62.4701 19.3535ZM72.6186 27.4669L65.2052 36.7398L63.7055 35.5409L64.3949 34.6786C63.8835 34.7887 63.3729 34.7697 62.8631 34.6216C62.3617 34.4802 61.8818 34.2263 61.4236 33.8599C60.7821 33.3471 60.3163 32.7425 60.0262 32.0463C59.7444 31.3567 59.6642 30.6371 59.7856 29.8874C59.9136 29.1294 60.2474 28.413 60.7869 27.7381C61.3264 27.0633 61.9485 26.5841 62.653 26.3007C63.3576 26.0173 64.0772 25.9371 64.8119 26.0601C65.5549 26.1898 66.2472 26.5111 66.8887 27.024C67.3303 27.377 67.6744 27.775 67.9211 28.2181C68.1678 28.6611 68.3004 29.1358 68.3189 29.6423L71.0564 26.218L72.6186 27.4669ZM62.6801 32.6726C63.055 32.9723 63.459 33.1588 63.8922 33.2319C64.332 33.2968 64.7659 33.2408 65.194 33.0641C65.6221 32.8874 66.0026 32.5907 66.3356 32.1742C66.6687 31.7576 66.8743 31.3211 66.9524 30.8646C67.0306 30.4081 66.9863 29.9767 66.8196 29.5703C66.6595 29.1555 66.392 28.7983 66.0171 28.4986C65.6422 28.1988 65.2348 28.0165 64.795 27.9517C64.3619 27.8786 63.9313 27.9303 63.5032 28.1071C63.0751 28.2838 62.6946 28.5804 62.3616 28.997C62.0285 29.4136 61.8229 29.8501 61.7448 30.3066C61.6666 30.763 61.7076 31.1986 61.8676 31.6134C62.0344 32.0198 62.3052 32.3729 62.6801 32.6726Z" fill="white"/>
<defs>
<filter id="filter0_d" x="0.568359" y="-21.1865" width="114.355" height="95.052" filterUnits="userSpaceOnUse" color-interpolation-filters="sRGB">
<feFlood flood-opacity="0" result="BackgroundImageFix"/>
<feColorMatrix in="SourceAlpha" type="matrix" values="0 0 0 0 0 0 0 0 0 0 0 0 0 0 0 0 0 0 127 0"/>
<feOffset dy="4"/>
<feGaussianBlur stdDeviation="2"/>
<feColorMatrix type="matrix" values="0 0 0 0 0 0 0 0 0 0 0 0 0 0 0 0 0 0 0.15 0"/>
<feBlend mode="normal" in2="BackgroundImageFix" result="effect1_dropShadow"/>
<feBlend mode="normal" in="SourceGraphic" in2="effect1_dropShadow" result="shape"/>
</filter>
</defs>
</svg>
