<svg width="184" height="32" viewBox="0 0 184 32" fill="none" xmlns="http://www.w3.org/2000/svg">
<path d="M12.824 21.832V25.224H0.664V21.832H4.76V6.024H0.664V2.632H12.824V6.024H8.536V21.832H12.824ZM24.644 25.256C22.276 25.256 20.2387 24.456 18.532 22.856C16.8253 21.2347 15.972 19.1227 15.972 16.52C15.972 13.9173 16.8573 11.8053 18.628 10.184C20.42 8.54133 22.596 7.72 25.156 7.72C27.716 7.72 29.8813 8.60533 31.652 10.376L29.54 12.968C28.068 11.688 26.5853 11.048 25.092 11.048C23.5987 11.048 22.2973 11.5493 21.188 12.552C20.1 13.5333 19.556 14.8133 19.556 16.392C19.556 17.9493 20.1 19.272 21.188 20.36C22.276 21.448 23.6093 21.992 25.188 21.992C26.788 21.992 28.292 21.2667 29.7 19.816L31.812 22.12C29.7427 24.2107 27.3533 25.256 24.644 25.256ZM39.4975 20.52C40.5215 21.544 41.8122 22.056 43.3695 22.056C44.9268 22.056 46.2068 21.544 47.2095 20.52C48.2335 19.4747 48.7455 18.1307 48.7455 16.488C48.7455 14.8453 48.2335 13.512 47.2095 12.488C46.2068 11.4427 44.9268 10.92 43.3695 10.92C41.8122 10.92 40.5215 11.4427 39.4975 12.488C38.4948 13.512 37.9935 14.8453 37.9935 16.488C37.9935 18.1307 38.4948 19.4747 39.4975 20.52ZM49.7695 22.728C48.0628 24.4133 45.9295 25.256 43.3695 25.256C40.8095 25.256 38.6762 24.4133 36.9695 22.728C35.2628 21.0213 34.4095 18.9413 34.4095 16.488C34.4095 14.0347 35.2628 11.9653 36.9695 10.28C38.6762 8.57333 40.8095 7.72 43.3695 7.72C45.9295 7.72 48.0628 8.57333 49.7695 10.28C51.4762 11.9653 52.3295 14.0347 52.3295 16.488C52.3295 18.9413 51.4762 21.0213 49.7695 22.728ZM56.9165 25V2.632H60.6925V21.416H70.9005V25H56.9165ZM81.4735 25.256C79.3188 25.256 77.4415 24.4453 75.8415 22.824C74.2415 21.2027 73.4415 19.0693 73.4415 16.424C73.4415 13.7787 74.2628 11.6667 75.9055 10.088C77.5482 8.50933 79.4895 7.72 81.7295 7.72C83.9695 7.72 85.8148 8.78667 87.2655 10.92V7.976H90.8495V25H87.2655V22.216C86.5828 23.1973 85.7082 23.9547 84.6415 24.488C83.5962 25 82.5402 25.256 81.4735 25.256ZM77.0255 16.584C77.0255 18.2053 77.5482 19.528 78.5935 20.552C79.6388 21.576 80.8655 22.088 82.2735 22.088C83.6815 22.088 84.8762 21.576 85.8575 20.552C86.8388 19.5067 87.3295 18.1733 87.3295 16.552C87.3295 14.9307 86.8388 13.576 85.8575 12.488C84.8762 11.4 83.6708 10.856 82.2415 10.856C80.8122 10.856 79.5855 11.4 78.5615 12.488C77.5375 13.576 77.0255 14.9413 77.0255 16.584ZM99.6135 15.784V25H96.0295V7.976H99.6135V11.08C100.19 10.0347 100.979 9.21333 101.981 8.616C103.005 8.01867 104.104 7.72 105.278 7.72C107.198 7.72 108.744 8.30667 109.917 9.48C111.112 10.6533 111.709 12.3493 111.709 14.568V25H108.125V15.656C108.125 12.52 106.824 10.952 104.222 10.952C102.984 10.952 101.907 11.368 100.99 12.2C100.072 13.0107 99.6135 14.2053 99.6135 15.784ZM123.661 25.256C121.506 25.256 119.629 24.4453 118.029 22.824C116.429 21.2027 115.629 19.0693 115.629 16.424C115.629 13.7787 116.45 11.6667 118.093 10.088C119.736 8.50933 121.688 7.72 123.949 7.72C126.232 7.72 128.066 8.68 129.453 10.6V1.256H133.037V25H129.453V22.44C128.13 24.3173 126.2 25.256 123.661 25.256ZM119.213 16.584C119.213 18.2053 119.736 19.528 120.781 20.552C121.826 21.576 123.053 22.088 124.461 22.088C125.869 22.088 127.064 21.576 128.045 20.552C129.026 19.5067 129.517 18.1733 129.517 16.552C129.517 14.9307 129.026 13.576 128.045 12.488C127.064 11.4 125.858 10.856 124.429 10.856C123 10.856 121.773 11.4 120.749 12.488C119.725 13.576 119.213 14.9413 119.213 16.584ZM141.801 25H138.217V7.976H141.801V25ZM138.441 4.584C137.993 4.136 137.769 3.60267 137.769 2.984C137.769 2.36533 137.993 1.832 138.441 1.384C138.889 0.936 139.422 0.712 140.041 0.712C140.66 0.712 141.193 0.936 141.641 1.384C142.089 1.832 142.313 2.36533 142.313 2.984C142.313 3.60267 142.089 4.136 141.641 4.584C141.193 5.032 140.66 5.256 140.041 5.256C139.422 5.256 138.889 5.032 138.441 4.584ZM150.582 15.784V25H146.998V7.976H150.582V11.08C151.158 10.0347 151.948 9.21333 152.95 8.616C153.974 8.01867 155.073 7.72 156.246 7.72C158.166 7.72 159.713 8.30667 160.886 9.48C162.081 10.6533 162.678 12.3493 162.678 14.568V25H159.094V15.656C159.094 12.52 157.793 10.952 155.19 10.952C153.953 10.952 152.876 11.368 151.958 12.2C151.041 13.0107 150.582 14.2053 150.582 15.784ZM175.11 28.616C178.267 28.616 179.846 26.5787 179.846 22.504V21.544C179.376 22.2907 178.63 22.9307 177.606 23.464C176.603 23.976 175.526 24.232 174.374 24.232C172.112 24.232 170.256 23.4427 168.806 21.864C167.355 20.2853 166.63 18.3227 166.63 15.976C166.63 13.6293 167.355 11.6667 168.806 10.088C170.256 8.50933 172.08 7.72 174.278 7.72C176.496 7.72 178.352 8.488 179.846 10.024V7.976H183.43V22.6C183.43 25.5653 182.651 27.8373 181.094 29.416C179.558 30.9947 177.563 31.784 175.11 31.784C173.232 31.784 171.579 31.336 170.15 30.44C168.742 29.544 167.718 28.264 167.078 26.6L170.214 25.256C171.067 27.496 172.699 28.616 175.11 28.616ZM170.15 15.848C170.15 17.2347 170.576 18.44 171.43 19.464C172.304 20.4667 173.467 20.968 174.918 20.968C176.39 20.968 177.574 20.4773 178.47 19.496C179.387 18.5147 179.846 17.2987 179.846 15.848C179.846 14.376 179.387 13.1387 178.47 12.136C177.552 11.112 176.368 10.6 174.918 10.6C173.467 10.6 172.304 11.1227 171.43 12.168C170.576 13.2133 170.15 14.44 170.15 15.848Z" fill="white" fill-opacity="0.6"/>
</svg>
