<svg width="21" height="30" viewBox="0 0 21 30" fill="none" xmlns="http://www.w3.org/2000/svg">
<path d="M17.6094 3.32227C15.6497 1.31706 13.2572 0.314453 10.4316 0.314453C7.60612 0.314453 5.19076 1.31706 3.18555 3.32227C1.22591 5.2819 0.246094 7.67448 0.246094 10.5C0.246094 11.9128 0.587891 13.5306 1.27148 15.3535C1.95508 17.1764 2.79818 18.8854 3.80078 20.4805C4.80339 22.0755 5.80599 23.5566 6.80859 24.9238C7.8112 26.291 8.6543 27.3848 9.33789 28.2051C10.0671 29.071 10.4316 29.4811 10.4316 29.4355C10.7051 29.1621 11.0697 28.752 11.5254 28.2051C11.9811 27.6582 12.8014 26.5872 13.9863 24.9922C15.1712 23.3971 16.1966 21.8704 17.0625 20.4121C17.974 18.9538 18.7943 17.2904 19.5234 15.4219C20.2526 13.5534 20.6172 11.9128 20.6172 10.5C20.6172 7.67448 19.6146 5.2819 17.6094 3.32227ZM12.9609 13.0977C12.2773 13.7812 11.4342 14.123 10.4316 14.123C9.42904 14.123 8.56315 13.7812 7.83398 13.0977C7.15039 12.3685 6.80859 11.5026 6.80859 10.5C6.80859 9.4974 7.15039 8.6543 7.83398 7.9707C8.56315 7.24154 9.42904 6.87695 10.4316 6.87695C11.4342 6.87695 12.2773 7.24154 12.9609 7.9707C13.6901 8.6543 14.0547 9.4974 14.0547 10.5C14.0547 11.5026 13.6901 12.3685 12.9609 13.0977Z" fill="#3821FF"/>
</svg>
