<svg width="117" height="29" viewBox="0 0 117 29" fill="none" xmlns="http://www.w3.org/2000/svg">
<path d="M4.2268 22H0.804124V1.83505H6.12371L12.1856 14.4948L18.2887 1.83505H23.567V22H20.1856V6.24742L13.134 20.2268H11.2371L4.2268 6.24742V22ZM26.813 26.5773L28.2975 23.9794C28.9848 24.6117 29.6858 24.9278 30.4006 24.9278C31.0879 24.9278 31.6652 24.6667 32.1326 24.1443C32.5999 23.6495 32.8336 23.0859 32.8336 22.4536C32.8336 22.2062 30.758 16.9416 26.6068 6.65979H30.0707L34.6893 17.9588L39.2666 6.65979H42.7305L35.2666 24.8866C34.8267 25.8763 34.1944 26.6598 33.3697 27.2371C32.5449 27.8144 31.6377 28.1031 30.648 28.1031C29.2185 28.1031 27.9401 27.5945 26.813 26.5773ZM60.9837 14.2474C60.9837 16.5567 60.269 18.4674 58.8394 19.9794C57.4098 21.4914 55.7054 22.2474 53.726 22.2474C51.7741 22.2474 50.0284 21.3952 48.4889 19.6907V22H45.2724V0.597939H48.4889V9.34021C49.781 7.38832 51.4442 6.41237 53.4786 6.41237C55.5954 6.41237 57.3686 7.14089 58.7982 8.59794C60.2552 10.055 60.9837 11.9381 60.9837 14.2474ZM52.9837 19.3608C54.3033 19.3608 55.4167 18.8935 56.3239 17.9588C57.2586 16.9966 57.726 15.7869 57.726 14.3299C57.726 12.8729 57.2586 11.6632 56.3239 10.701C55.4167 9.73883 54.3171 9.25773 53.025 9.25773C51.7329 9.25773 50.647 9.75258 49.7672 10.7423C48.8875 11.7045 48.4476 12.9003 48.4476 14.3299C48.4476 15.7869 48.8875 16.9966 49.7672 17.9588C50.647 18.8935 51.7191 19.3608 52.9837 19.3608ZM67.8639 22H64.6474V6.65979H67.8639V22ZM64.235 2.12371C64.235 1.57388 64.4275 1.10653 64.8123 0.72165C65.2247 0.309278 65.7196 0.103092 66.2969 0.103092C66.8467 0.103092 67.3141 0.309278 67.6989 0.72165C68.1113 1.10653 68.3175 1.57388 68.3175 2.12371C68.3175 2.70103 68.1113 3.19588 67.6989 3.60825C67.3141 3.99313 66.8467 4.18557 66.2969 4.18557C65.7196 4.18557 65.2385 3.97938 64.8536 3.56701C64.4412 3.18213 64.235 2.70103 64.235 2.12371ZM76.5358 9.25773V17.0515C76.5358 17.7938 76.7283 18.3849 77.1132 18.8247C77.5255 19.2371 78.0754 19.4433 78.7626 19.4433C79.3949 19.4433 80.0547 19.0997 80.742 18.4124L82.0616 20.7216C80.907 21.7388 79.6561 22.2474 78.309 22.2474C76.907 22.2474 75.7248 21.7663 74.7626 20.8041C73.8004 19.8144 73.3193 18.5361 73.3193 16.9691V9.25773H71.3812V6.65979H73.3193V1.83505H76.5358V6.65979H80.5771V9.25773H76.5358ZM83.6165 14.3299C83.6165 12.0206 84.4137 10.1237 86.0082 8.63918C87.6027 7.15464 89.5684 6.41237 91.9051 6.41237C94.2144 6.41237 96.1663 7.20962 97.7608 8.80412L95.8639 11.1546C94.5443 10 93.211 9.42268 91.8639 9.42268C90.4893 9.42268 89.3072 9.87629 88.3175 10.7835C87.3553 11.6632 86.8742 12.8041 86.8742 14.2062C86.8742 15.6357 87.3553 16.8454 88.3175 17.8351C89.3072 18.7973 90.5168 19.2784 91.9464 19.2784C93.3759 19.2784 94.7367 18.6323 96.0288 17.3402L97.9257 19.4021C95.9739 21.299 93.8158 22.2474 91.4515 22.2474C89.2522 22.2474 87.3965 21.5189 85.8845 20.0619C84.3725 18.5773 83.6165 16.6667 83.6165 14.3299ZM108.3 19.3608C109.703 19.3608 110.857 18.8935 111.764 17.9588C112.699 17.0241 113.166 15.8144 113.166 14.3299C113.166 12.8454 112.699 11.6357 111.764 10.701C110.857 9.76632 109.703 9.29897 108.3 9.29897C106.898 9.29897 105.744 9.76632 104.837 10.701C103.929 11.6357 103.476 12.8454 103.476 14.3299C103.476 15.8144 103.929 17.0103 104.837 17.9175C105.744 18.8797 106.898 19.3608 108.3 19.3608ZM108.3 22.2474C105.991 22.2474 104.067 21.4914 102.527 19.9794C100.988 18.4399 100.218 16.5567 100.218 14.3299C100.218 12.1031 100.988 10.2337 102.527 8.72165C104.067 7.18213 105.991 6.41237 108.3 6.41237C110.61 6.41237 112.534 7.18213 114.074 8.72165C115.613 10.2337 116.383 12.1031 116.383 14.3299C116.383 16.4742 115.613 18.3436 114.074 19.9381C112.534 21.4777 110.61 22.2474 108.3 22.2474Z" fill="white" fill-opacity="0.6"/>
</svg>
