<svg width="183" height="23" viewBox="0 0 183 23" fill="none" xmlns="http://www.w3.org/2000/svg">
<path d="M3.104 21.624V0.632H6.88L19.872 17.336V0.632H23.648V21.624H26.752V23H19.552L6.88 6.68V23H0V21.624H3.104ZM29.854 21.624V0.632H45.566V4.184H33.63V10.104H44.35V13.464H33.63V19.448H45.95V21.624H49.054V23H26.75V21.624H29.854ZM81.2235 21.624V23H69.2875L64.5835 7.672H64.3275L59.6235 23H47.6875V21.624H55.3995L48.0715 0.632H52.1355L57.7675 16.728L62.7595 0.632H66.1515L71.1435 16.728L76.7755 0.632H80.8395L73.5115 21.624H81.2235ZM101.379 21.624V23H81.2188V21.624H85.3148C84.2908 21.0907 83.3521 20.4293 82.4987 19.64L84.8668 16.792C87.1281 18.7547 89.4747 19.736 91.9067 19.736C93.1227 19.736 94.0828 19.48 94.7867 18.968C95.5121 18.4347 95.8748 17.7413 95.8748 16.888C95.8748 16.0133 95.5334 15.3413 94.8507 14.872C94.1894 14.3813 93.0374 13.944 91.3947 13.56C89.7521 13.1547 88.5041 12.792 87.6508 12.472C86.7974 12.1307 86.0401 11.6933 85.3787 11.16C84.0561 10.1573 83.3948 8.62133 83.3948 6.552C83.3948 4.48267 84.1414 2.89333 85.6347 1.784C87.1494 0.653333 89.0161 0.0879993 91.2347 0.0879993C92.6641 0.0879993 94.0828 0.322666 95.4908 0.792C96.8988 1.26133 98.1148 1.92267 99.1388 2.776L97.1228 5.624C96.4614 5.02667 95.5654 4.536 94.4347 4.152C93.3041 3.768 92.1841 3.576 91.0747 3.576C89.9867 3.576 89.0908 3.8 88.3868 4.248C87.6828 4.696 87.3307 5.37867 87.3307 6.296C87.3307 7.192 87.6828 7.88533 88.3868 8.376C89.0908 8.84533 90.5841 9.35733 92.8667 9.912C95.1707 10.4667 96.8988 11.2453 98.0508 12.248C99.2241 13.2507 99.8107 14.6587 99.8107 16.472C99.8107 18.6693 99.0001 20.3867 97.3787 21.624H101.379ZM124.927 21.624V23H101.375V21.624H108.479C106.794 20.6213 105.46 19.256 104.479 17.528C103.519 15.8 103.039 13.848 103.039 11.672C103.039 8.38667 104.17 5.63467 106.431 3.416C108.714 1.19733 111.583 0.0879993 115.039 0.0879993C118.516 0.0879993 121.418 1.368 123.743 3.928L121.343 6.552C120.276 5.528 119.263 4.81333 118.303 4.408C117.364 4.00267 116.255 3.8 114.975 3.8C112.714 3.8 110.815 4.536 109.279 6.008C107.743 7.45867 106.975 9.32533 106.975 11.608C106.975 13.8693 107.732 15.768 109.247 17.304C110.783 18.8187 112.596 19.576 114.687 19.576C115.988 19.576 117.108 19.3627 118.047 18.936C118.986 18.488 119.967 17.784 120.991 16.824L123.423 19.32C122.484 20.344 121.588 21.112 120.735 21.624H124.927ZM151.349 21.624V23H124.469V21.624H131.797C130.047 20.6213 128.661 19.2453 127.637 17.496C126.634 15.7467 126.133 13.7947 126.133 11.64C126.133 8.35467 127.263 5.61333 129.525 3.416C131.786 1.19733 134.581 0.0879993 137.909 0.0879993C141.237 0.0879993 144.031 1.19733 146.293 3.416C148.554 5.61333 149.685 8.35467 149.685 11.64C149.685 13.7733 149.173 15.7253 148.149 17.496C147.146 19.2667 145.77 20.6427 144.021 21.624H151.349ZM143.509 5.912C141.994 4.33333 140.127 3.544 137.909 3.544C135.69 3.544 133.813 4.33333 132.277 5.912C130.762 7.49067 130.005 9.41067 130.005 11.672C130.005 13.912 130.762 15.8213 132.277 17.4C133.813 18.9787 135.69 19.768 137.909 19.768C140.127 19.768 141.994 18.9787 143.509 17.4C145.045 15.8213 145.813 13.912 145.813 11.672C145.813 9.41067 145.045 7.49067 143.509 5.912ZM182.8 21.624V23H175.92V5.528L168.112 21.048H166L158.224 5.528V23H151.344V21.624H154.448V0.632H160.336L167.088 14.68L173.84 0.632H179.696V21.624H182.8Z" fill="white" fill-opacity="0.6"/>
</svg>
