<svg width="82" height="23" viewBox="0 0 82 23" fill="none" xmlns="http://www.w3.org/2000/svg">
<rect width="82" height="23" rx="5" fill="#EFBC43"/>
<path d="M17.1231 6.1125C18.0938 6.1125 18.9365 6.2725 19.6511 6.5925C20.3765 6.9125 20.9311 7.37117 21.3151 7.9685C21.6991 8.56583 21.8911 9.27517 21.8911 10.0965C21.8911 10.9072 21.6991 11.6165 21.3151 12.2245C20.9311 12.8218 20.3765 13.2805 19.6511 13.6005C18.9365 13.9205 18.0938 14.0805 17.1231 14.0805H14.5951V17.3125H12.5151V6.1125H17.1231ZM17.0271 12.3205C17.9338 12.3205 18.6218 12.1285 19.0911 11.7445C19.5605 11.3605 19.7951 10.8112 19.7951 10.0965C19.7951 9.38183 19.5605 8.8325 19.0911 8.4485C18.6218 8.0645 17.9338 7.8725 17.0271 7.8725H14.5951V12.3205H17.0271ZM25.6021 10.0165C26.1781 9.1205 27.1915 8.6725 28.6421 8.6725V10.5765C28.4715 10.5445 28.3168 10.5285 28.1781 10.5285C27.3995 10.5285 26.7915 10.7578 26.3541 11.2165C25.9168 11.6645 25.6981 12.3152 25.6981 13.1685V17.3125H23.6981V8.7685H25.6021V10.0165ZM38.2926 13.0885C38.2926 13.2272 38.282 13.4245 38.2606 13.6805H31.5566C31.674 14.3098 31.978 14.8112 32.4686 15.1845C32.97 15.5472 33.5886 15.7285 34.3246 15.7285C35.2633 15.7285 36.0366 15.4192 36.6446 14.8005L37.7166 16.0325C37.3326 16.4912 36.8473 16.8378 36.2606 17.0725C35.674 17.3072 35.0126 17.4245 34.2766 17.4245C33.338 17.4245 32.5113 17.2378 31.7966 16.8645C31.082 16.4912 30.5273 15.9738 30.1326 15.3125C29.7486 14.6405 29.5566 13.8832 29.5566 13.0405C29.5566 12.2085 29.7433 11.4618 30.1166 10.8005C30.5006 10.1285 31.0286 9.60583 31.7006 9.2325C32.3726 8.85917 33.13 8.6725 33.9726 8.6725C34.8046 8.6725 35.546 8.85917 36.1966 9.2325C36.858 9.59517 37.37 10.1125 37.7326 10.7845C38.106 11.4458 38.2926 12.2138 38.2926 13.0885ZM33.9726 10.2725C33.3326 10.2725 32.7886 10.4645 32.3406 10.8485C31.9033 11.2218 31.6366 11.7232 31.5406 12.3525H36.3886C36.3033 11.7338 36.042 11.2325 35.6046 10.8485C35.1673 10.4645 34.6233 10.2725 33.9726 10.2725ZM44.8276 6.1125H46.9076V17.3125H44.8276V6.1125ZM55.121 17.4725C53.9903 17.4725 52.9663 17.2272 52.049 16.7365C51.1423 16.2352 50.4277 15.5472 49.905 14.6725C49.393 13.7978 49.137 12.8112 49.137 11.7125C49.137 10.6138 49.3983 9.62717 49.921 8.7525C50.4437 7.87783 51.1583 7.19517 52.065 6.7045C52.9823 6.20317 54.0063 5.9525 55.137 5.9525C56.0543 5.9525 56.8917 6.1125 57.649 6.4325C58.4063 6.7525 59.0463 7.2165 59.569 7.8245L58.225 9.0885C57.4143 8.21383 56.417 7.7765 55.233 7.7765C54.465 7.7765 53.777 7.94717 53.169 8.2885C52.561 8.61917 52.0863 9.08317 51.745 9.6805C51.4037 10.2778 51.233 10.9552 51.233 11.7125C51.233 12.4698 51.4037 13.1472 51.745 13.7445C52.0863 14.3418 52.561 14.8112 53.169 15.1525C53.777 15.4832 54.465 15.6485 55.233 15.6485C56.417 15.6485 57.4143 15.2058 58.225 14.3205L59.569 15.6005C59.0463 16.2085 58.401 16.6725 57.633 16.9925C56.8757 17.3125 56.0383 17.4725 55.121 17.4725ZM66.5596 17.4725C65.4183 17.4725 64.389 17.2272 63.4716 16.7365C62.5543 16.2352 61.8343 15.5472 61.3116 14.6725C60.789 13.7872 60.5276 12.8005 60.5276 11.7125C60.5276 10.6245 60.789 9.64317 61.3116 8.7685C61.8343 7.88317 62.5543 7.19517 63.4716 6.7045C64.389 6.20317 65.4183 5.9525 66.5596 5.9525C67.701 5.9525 68.7303 6.20317 69.6476 6.7045C70.565 7.19517 71.285 7.87783 71.8076 8.7525C72.3303 9.62717 72.5916 10.6138 72.5916 11.7125C72.5916 12.8112 72.3303 13.7978 71.8076 14.6725C71.285 15.5472 70.565 16.2352 69.6476 16.7365C68.7303 17.2272 67.701 17.4725 66.5596 17.4725ZM66.5596 15.6485C67.3063 15.6485 67.9783 15.4832 68.5756 15.1525C69.173 14.8112 69.6423 14.3418 69.9836 13.7445C70.325 13.1365 70.4956 12.4592 70.4956 11.7125C70.4956 10.9658 70.325 10.2938 69.9836 9.6965C69.6423 9.0885 69.173 8.61917 68.5756 8.2885C67.9783 7.94717 67.3063 7.7765 66.5596 7.7765C65.813 7.7765 65.141 7.94717 64.5436 8.2885C63.9463 8.61917 63.477 9.0885 63.1356 9.6965C62.7943 10.2938 62.6236 10.9658 62.6236 11.7125C62.6236 12.4592 62.7943 13.1365 63.1356 13.7445C63.477 14.3418 63.9463 14.8112 64.5436 15.1525C65.141 15.4832 65.813 15.6485 66.5596 15.6485Z" fill="white"/>
</svg>
