<svg width="113" height="24" viewBox="0 0 113 24" fill="none" xmlns="http://www.w3.org/2000/svg">
<path d="M12.768 0.6V2.328H7.648V23H5.92V2.328H0.608V0.6H12.768ZM22.6745 18.392V11.448C22.6745 10.744 22.5465 10.1893 22.2905 9.784C22.0345 9.35733 21.7252 9.03733 21.3625 8.824C21.0212 8.58933 20.6478 8.44 20.2425 8.376C19.8585 8.29067 19.5278 8.248 19.2505 8.248C18.9732 8.248 18.6318 8.29067 18.2265 8.376C17.8425 8.44 17.4692 8.58933 17.1065 8.824C16.7438 9.03733 16.4345 9.35733 16.1785 9.784C15.9225 10.1893 15.7945 10.744 15.7945 11.448V18.392C15.7945 19.096 15.9225 19.6613 16.1785 20.088C16.4345 20.4933 16.7438 20.8133 17.1065 21.048C17.4692 21.2827 17.8425 21.4427 18.2265 21.528C18.6318 21.592 18.9732 21.624 19.2505 21.624C19.5278 21.624 19.8585 21.592 20.2425 21.528C20.6478 21.4427 21.0212 21.2827 21.3625 21.048C21.7252 20.8133 22.0345 20.4933 22.2905 20.088C22.5465 19.6613 22.6745 19.096 22.6745 18.392ZM24.1465 18.616C24.1465 19.5973 23.9652 20.3867 23.6025 20.984C23.2398 21.5813 22.8025 22.0507 22.2905 22.392C21.7785 22.712 21.2452 22.9253 20.6905 23.032C20.1358 23.1387 19.6558 23.192 19.2505 23.192C18.8452 23.192 18.3652 23.1387 17.8105 23.032C17.2558 22.9253 16.7225 22.712 16.2105 22.392C15.6985 22.0507 15.2612 21.5813 14.8985 20.984C14.5358 20.3867 14.3545 19.5973 14.3545 18.616V11.224C14.3545 10.2427 14.5358 9.45333 14.8985 8.856C15.2612 8.25867 15.6985 7.8 16.2105 7.48C16.7225 7.16 17.2558 6.94667 17.8105 6.84C18.3652 6.73333 18.8452 6.68 19.2505 6.68C19.6558 6.68 20.1358 6.73333 20.6905 6.84C21.2452 6.94667 21.7785 7.16 22.2905 7.48C22.8025 7.8 23.2398 8.25867 23.6025 8.856C23.9652 9.45333 24.1465 10.2427 24.1465 11.224V18.616ZM33.3162 23L29.8923 15.352H28.8363V23H27.2043V0.6H28.8363V13.4H29.8602L33.2843 7.032H35.1082L31.1722 14.424L35.1403 23H33.3162ZM42.9187 15.288H42.9827C43.3668 15.288 43.7188 15.2133 44.0387 15.064C44.3588 14.8933 44.6361 14.68 44.8708 14.424C45.1054 14.1467 45.2867 13.8373 45.4148 13.496C45.5641 13.1547 45.6388 12.792 45.6388 12.408V11.064C45.6388 10.552 45.5428 10.1253 45.3507 9.784C45.1587 9.42133 44.9028 9.13333 44.5828 8.92C44.2841 8.70667 43.9214 8.55733 43.4948 8.472C43.0894 8.36533 42.6628 8.312 42.2147 8.312C41.8094 8.312 41.4147 8.376 41.0307 8.504C40.6681 8.632 40.3481 8.81333 40.0708 9.048C39.7934 9.28267 39.5694 9.57067 39.3988 9.912C39.2281 10.2533 39.1428 10.6373 39.1428 11.064V15.256L42.9187 15.288ZM37.4787 11.224C37.4787 10.584 37.5854 9.98667 37.7987 9.432C38.0334 8.87733 38.3427 8.39733 38.7267 7.992C39.1321 7.58667 39.5907 7.26667 40.1027 7.032C40.6361 6.79733 41.2121 6.68 41.8307 6.68H42.9187C43.5161 6.68 44.0814 6.79733 44.6147 7.032C45.1481 7.26667 45.6174 7.58667 46.0227 7.992C46.4281 8.39733 46.7374 8.87733 46.9508 9.432C47.1854 9.98667 47.3027 10.584 47.3027 11.224V12.28C47.3027 13.176 47.1427 13.9333 46.8228 14.552C46.5027 15.1493 46.0654 15.64 45.5107 16.024C44.9561 16.408 44.3054 16.6853 43.5588 16.856C42.8334 17.0053 42.0547 17.08 41.2228 17.08C40.8814 17.08 40.5401 17.0693 40.1988 17.048C39.8574 17.0267 39.5054 16.9947 39.1428 16.952V18.872C39.2921 19.7253 39.6867 20.408 40.3267 20.92C40.9881 21.4107 41.7347 21.656 42.5668 21.656C42.6521 21.656 42.9187 21.6133 43.3667 21.528C43.8361 21.4213 44.3268 21.3147 44.8387 21.208C45.4361 21.08 46.0974 20.9307 46.8228 20.76L47.2067 22.456C46.4174 22.6267 45.7027 22.7653 45.0627 22.872C44.5081 22.9787 43.9748 23.0747 43.4627 23.16C42.9721 23.2453 42.6734 23.288 42.5668 23.288C41.8841 23.288 41.2334 23.1707 40.6147 22.936C39.9961 22.68 39.4521 22.328 38.9827 21.88C38.5134 21.432 38.1401 20.9093 37.8628 20.312C37.6068 19.6933 37.4787 19.0213 37.4787 18.296V11.224ZM60.017 9.336C60.273 9.86933 60.4223 10.4133 60.465 10.968C60.5077 11.5013 60.529 12.056 60.529 12.632V23H58.833V11.64C58.833 10.552 58.545 9.72 57.969 9.144C57.393 8.568 56.7423 8.28 56.017 8.28C55.6117 8.28 55.089 8.344 54.449 8.472C53.8303 8.6 53.1263 8.92 52.337 9.432V23H50.705V8.568L50.001 7.896L51.153 6.744L52.113 7.704C53.2863 7.04267 54.3957 6.712 55.441 6.712C56.401 6.712 57.297 6.91467 58.129 7.32C58.961 7.704 59.5903 8.376 60.017 9.336ZM66.5975 16.888C66.5975 17.528 66.7042 18.104 66.9175 18.616C67.1308 19.128 67.4188 19.5653 67.7815 19.928C68.1442 20.2907 68.5602 20.5787 69.0295 20.792C69.5202 20.984 70.0215 21.0907 70.5335 21.112C70.6828 21.112 70.8322 21.1013 70.9815 21.08C71.1308 21.0587 71.3122 21.016 71.5255 20.952C71.7602 20.8667 72.0482 20.76 72.3895 20.632C72.7308 20.504 73.1682 20.3333 73.7015 20.12L74.7255 19.672L75.5895 21.88L72.8055 22.872C72.4428 23 72.0482 23.1067 71.6215 23.192C71.1948 23.2773 70.8322 23.32 70.5335 23.32C69.7228 23.32 68.9442 23.1813 68.1975 22.904C67.4722 22.6053 66.8322 22.1893 66.2775 21.656C65.7228 21.1013 65.2855 20.44 64.9655 19.672C64.6455 18.8827 64.4855 18.008 64.4855 17.048V6.904C64.4855 6.02933 64.6455 5.19733 64.9655 4.408C65.2855 3.59733 65.6375 2.97867 66.0215 2.552C66.3628 2.14667 66.6615 1.83733 66.9175 1.624C67.1948 1.41067 67.4722 1.21867 67.7495 1.048L67.9095 0.983999L67.8135 1.016C68.0482 0.888 68.3788 0.738667 68.8055 0.568001C69.2535 0.376001 69.8508 0.280001 70.5975 0.280001C70.9175 0.280001 71.2908 0.333334 71.7175 0.440001C72.1442 0.546667 72.5175 0.653334 72.8375 0.76L75.5255 1.784L74.7895 3.864L71.8455 2.744C71.6322 2.65867 71.4188 2.584 71.2055 2.52C70.9922 2.456 70.8002 2.424 70.6295 2.424C70.0962 2.424 69.5842 2.552 69.0935 2.808C68.6242 3.064 68.2082 3.40533 67.8455 3.832C67.4828 4.23733 67.1948 4.70667 66.9815 5.24C66.7682 5.77333 66.6615 6.328 66.6615 6.904L66.5975 16.888ZM85.5568 15.224C85.5568 15.2027 85.4608 15.1493 85.2688 15.064C85.0981 14.9573 84.8634 14.8507 84.5647 14.744C84.2661 14.6373 83.9141 14.5413 83.5087 14.456C83.1034 14.3707 82.6768 14.328 82.2288 14.328C81.5674 14.328 81.0021 14.5733 80.5328 15.064C80.0848 15.5547 79.8607 16.1307 79.8607 16.792V18.776C79.8607 19.4587 80.0848 20.0453 80.5328 20.536C81.0021 21.0053 81.5568 21.24 82.1968 21.24C82.4314 21.24 82.7407 21.1867 83.1248 21.08C83.5087 20.9733 83.8821 20.856 84.2448 20.728C84.6501 20.5787 85.0874 20.3973 85.5568 20.184V15.224ZM87.5728 21.176L88.2767 21.816L86.8368 23.256L85.9727 22.392C85.3114 22.712 84.6181 22.9467 83.8927 23.096C83.1674 23.2453 82.6128 23.32 82.2288 23.32C81.6101 23.32 81.0341 23.2027 80.5008 22.968C79.9674 22.712 79.5088 22.3707 79.1247 21.944C78.7407 21.5173 78.4314 21.0267 78.1968 20.472C77.9834 19.896 77.8767 19.288 77.8767 18.648V16.888C77.8767 16.2693 77.9834 15.6827 78.1968 15.128C78.4314 14.5733 78.7407 14.0933 79.1247 13.688C79.5088 13.2613 79.9674 12.9307 80.5008 12.696C81.0341 12.44 81.6101 12.312 82.2288 12.312C82.3568 12.312 82.5488 12.3227 82.8047 12.344C83.0821 12.344 83.3807 12.376 83.7007 12.44C84.0207 12.4827 84.3408 12.5573 84.6608 12.664C85.0021 12.7493 85.3114 12.8667 85.5887 13.016V12.344C85.5887 11.896 85.5034 11.448 85.3328 11C85.1834 10.552 84.9701 10.1573 84.6927 9.816C84.4154 9.47467 84.0848 9.19733 83.7007 8.984C83.3381 8.77067 82.9541 8.664 82.5487 8.664C82.3994 8.664 82.1007 8.71733 81.6528 8.824C81.2261 8.93067 80.7674 9.03733 80.2768 9.144C79.7221 9.29333 79.1034 9.45333 78.4208 9.624L77.8767 7.704C78.5807 7.512 79.2421 7.34133 79.8607 7.192C80.3941 7.064 80.9167 6.94667 81.4288 6.84C81.9408 6.73333 82.3141 6.68 82.5487 6.68C83.2314 6.68 83.8714 6.84 84.4688 7.16C85.0874 7.48 85.6208 7.90667 86.0688 8.44C86.5168 8.97333 86.8688 9.58133 87.1248 10.264C87.4021 10.9253 87.5407 11.6187 87.5407 12.344L87.5728 21.176ZM100.128 18.488C100.128 20.088 99.7232 21.2933 98.9125 22.104C98.1232 22.9147 97.0885 23.32 95.8085 23.32C95.4245 23.32 95.0298 23.2773 94.6245 23.192C94.2192 23.128 93.8032 23.0107 93.3765 22.84L90.6245 21.752L91.3925 19.992L94.1765 21.112C94.4538 21.2187 94.7312 21.2933 95.0085 21.336C95.3072 21.3787 95.5845 21.4 95.8405 21.4C96.5018 21.4 97.0565 21.144 97.5045 20.632C97.9738 20.0987 98.2085 19.3413 98.2085 18.36C98.2085 17.9547 98.1232 17.6133 97.9525 17.336C97.8032 17.0373 97.6005 16.8027 97.3445 16.632C97.1098 16.4613 96.8432 16.3333 96.5445 16.248C96.2672 16.1627 96.0005 16.12 95.7445 16.12C94.9765 16.12 94.2725 16.0453 93.6325 15.896C93.0138 15.7467 92.4805 15.5013 92.0325 15.16C91.5845 14.7973 91.2432 14.328 91.0085 13.752C90.7738 13.1547 90.6565 12.408 90.6565 11.512C90.6565 10.7227 90.7738 10.0293 91.0085 9.432C91.2432 8.81333 91.5525 8.30133 91.9365 7.896C92.3418 7.49067 92.8112 7.192 93.3445 7C93.8992 6.78667 94.4965 6.68 95.1365 6.68C95.5205 6.68 95.9045 6.73333 96.2885 6.84C96.6725 6.92533 97.0778 7.04267 97.5045 7.192L98.7525 7.64L97.9525 9.4C97.3978 9.208 96.9605 9.05867 96.6405 8.952C96.3418 8.84533 96.0965 8.77067 95.9045 8.728C95.7338 8.68533 95.6058 8.664 95.5205 8.664C95.4352 8.64267 95.3498 8.632 95.2645 8.632H95.1045C94.4432 8.632 93.8565 8.89867 93.3445 9.432C92.8325 9.96533 92.5765 10.712 92.5765 11.672C92.5765 12.0773 92.6618 12.44 92.8325 12.76C93.0245 13.0587 93.2485 13.3147 93.5045 13.528C93.7605 13.7413 94.0378 13.9013 94.3365 14.008C94.6565 14.1147 94.9445 14.168 95.2005 14.168C95.8832 14.168 96.5232 14.232 97.1205 14.36C97.7178 14.4667 98.2405 14.68 98.6885 15C99.1365 15.32 99.4885 15.7573 99.7445 16.312C100.001 16.8667 100.128 17.592 100.128 18.488ZM108.139 15.064C108.8 15.064 109.355 14.808 109.803 14.296C110.272 13.7627 110.507 13.1547 110.507 12.472V11.16C110.507 10.712 110.422 10.3387 110.251 10.04C110.08 9.72 109.846 9.464 109.547 9.272C109.27 9.08 108.939 8.94133 108.555 8.856C108.171 8.77067 107.776 8.728 107.371 8.728C106.646 8.728 106.006 8.952 105.451 9.4C104.896 9.82667 104.619 10.4133 104.619 11.16V15.032L108.139 15.064ZM102.539 11.32C102.539 10.68 102.656 10.0827 102.891 9.528C103.126 8.952 103.446 8.46133 103.851 8.056C104.256 7.62933 104.726 7.29867 105.259 7.064C105.814 6.808 106.4 6.68 107.019 6.68H108.075C108.694 6.68 109.27 6.79733 109.803 7.032C110.358 7.26667 110.838 7.59733 111.243 8.024C111.648 8.42933 111.968 8.92 112.203 9.496C112.438 10.0507 112.555 10.6587 112.555 11.32V12.344C112.555 13.2613 112.395 14.0293 112.075 14.648C111.755 15.2667 111.307 15.768 110.731 16.152C110.176 16.536 109.526 16.8133 108.779 16.984C108.032 17.1547 107.243 17.24 106.411 17.24C105.814 17.24 105.216 17.208 104.619 17.144V18.744C104.768 19.4907 105.131 20.0987 105.707 20.568C106.304 21.0373 106.976 21.272 107.723 21.272C107.766 21.272 108.011 21.2293 108.459 21.144C108.928 21.0373 109.43 20.92 109.963 20.792C110.582 20.664 111.264 20.504 112.011 20.312L112.523 22.424C111.712 22.5947 110.966 22.744 110.283 22.872C109.707 22.9787 109.163 23.0747 108.651 23.16C108.139 23.2453 107.83 23.288 107.723 23.288C107.019 23.288 106.347 23.16 105.707 22.904C105.088 22.648 104.544 22.296 104.075 21.848C103.606 21.4 103.232 20.8667 102.955 20.248C102.678 19.6293 102.539 18.9467 102.539 18.2V11.32Z" fill="white" fill-opacity="0.6"/>
</svg>
